<svg xmlns="http://www.w3.org/2000/svg" width="800" height="520" viewBox="0 0 800 520">
<defs>
  <linearGradient id="bg" x1="0" y1="0" x2="1" y2="1">
    <stop offset="0" stop-color="#ffc0db"/>
    <stop offset="1" stop-color="#845cff"/>
  </linearGradient>
  <radialGradient id="glow" cx="20%" cy="18%" r="80%">
    <stop offset="0" stop-color="#ffffff" stop-opacity="0.55"/>
    <stop offset="1" stop-color="#ffffff" stop-opacity="0"/>
  </radialGradient>
  <filter id="shadow" x="-20%" y="-20%" width="140%" height="160%">
    <feGaussianBlur in="SourceAlpha" stdDeviation="10" result="b"/>
    <feOffset in="b" dy="10" result="o"/>
    <feColorMatrix in="o" type="matrix" values="0 0 0 0 0.02 0 0 0 0 0.05 0 0 0 0 0.15 0 0 0 0.22 0" result="c"/>
    <feMerge><feMergeNode in="c"/><feMergeNode in="SourceGraphic"/></feMerge>
  </filter>
</defs>
<rect width="800" height="520" rx="36" fill="url(#bg)"/>
<rect width="800" height="520" rx="36" fill="url(#glow)"/>
<g filter="url(#shadow)">
<rect x="222" y="86" width="356" height="300" rx="30" fill="#fff2f6" stroke="rgba(255,255,255,.6)"/>
<rect x="248" y="116" width="304" height="242" rx="20" fill="#f8d7e2"/>
<rect x="274" y="160" width="252" height="90" rx="10" fill="rgba(255,255,255,.58)"/>
<rect x="274" y="268" width="156" height="22" rx="11" fill="rgba(255,255,255,.58)"/>
<rect x="274" y="302" width="118" height="18" rx="9" fill="rgba(255,255,255,.42)"/>
<circle cx="480" cy="283" r="36" fill="#ff7db8" opacity=".55"/>
<path d="M480 252 C468 272 468 294 480 314 C492 294 492 272 480 252 Z" fill="#ffffff" opacity=".85"/>
<text x="70" y="452" font-size="36" font-weight="900" font-family="ui-sans-serif, system-ui" fill="#10203a">Glow Mask</text>
<text x="72" y="486" font-size="18" font-weight="700" font-family="ui-sans-serif, system-ui" fill="#30415b">Sheet mask beauty pack placeholder</text>
</g>
</svg>