<svg xmlns="http://www.w3.org/2000/svg" width="800" height="520" viewBox="0 0 800 520">
<defs>
  <linearGradient id="bg" x1="0" y1="0" x2="1" y2="1">
    <stop offset="0" stop-color="#7c7cff"/>
    <stop offset="1" stop-color="#ff7db8"/>
  </linearGradient>
  <radialGradient id="glow" cx="20%" cy="18%" r="80%">
    <stop offset="0" stop-color="#ffffff" stop-opacity="0.55"/>
    <stop offset="1" stop-color="#ffffff" stop-opacity="0"/>
  </radialGradient>
  <filter id="shadow" x="-20%" y="-20%" width="140%" height="160%">
    <feGaussianBlur in="SourceAlpha" stdDeviation="10" result="b"/>
    <feOffset in="b" dy="10" result="o"/>
    <feColorMatrix in="o" type="matrix" values="0 0 0 0 0.02 0 0 0 0 0.05 0 0 0 0 0.15 0 0 0 0.22 0" result="c"/>
    <feMerge><feMergeNode in="c"/><feMergeNode in="SourceGraphic"/></feMerge>
  </filter>
</defs>
<rect width="800" height="520" rx="36" fill="url(#bg)"/>
<rect width="800" height="520" rx="36" fill="url(#glow)"/>
<g filter="url(#shadow)">
<rect x="200" y="110" width="400" height="280" rx="34" fill="rgba(255,255,255,.28)" stroke="rgba(255,255,255,.38)"/>
<g fill="#ffe7f3">
  <rect x="252" y="160" width="46" height="144" rx="23"/>
  <rect x="330" y="146" width="46" height="160" rx="23"/>
  <rect x="408" y="138" width="46" height="168" rx="23"/>
  <rect x="486" y="150" width="46" height="156" rx="23"/>
</g>
<g fill="#ff7db8" opacity=".78">
  <path d="M252 190 L298 160 L298 220 Z"/><path d="M330 182 L376 146 L376 210 Z"/><path d="M408 174 L454 138 L454 208 Z"/><path d="M486 186 L532 150 L532 214 Z"/>
</g>
<text x="70" y="452" font-size="36" font-weight="900" font-family="ui-sans-serif, system-ui" fill="#ffffff">Press-On</text>
<text x="72" y="486" font-size="18" font-weight="700" font-family="ui-sans-serif, system-ui" fill="rgba(255,255,255,.78)">Press-on nail kit placeholder</text>
</g>
</svg>