<svg xmlns="http://www.w3.org/2000/svg" width="800" height="520" viewBox="0 0 800 520">
<defs>
  <linearGradient id="bg" x1="0" y1="0" x2="1" y2="1">
    <stop offset="0" stop-color="#d7fff8"/>
    <stop offset="1" stop-color="#7c7cff"/>
  </linearGradient>
  <radialGradient id="glow" cx="20%" cy="18%" r="80%">
    <stop offset="0" stop-color="#ffffff" stop-opacity="0.55"/>
    <stop offset="1" stop-color="#ffffff" stop-opacity="0"/>
  </radialGradient>
  <filter id="shadow" x="-20%" y="-20%" width="140%" height="160%">
    <feGaussianBlur in="SourceAlpha" stdDeviation="10" result="b"/>
    <feOffset in="b" dy="10" result="o"/>
    <feColorMatrix in="o" type="matrix" values="0 0 0 0 0.02 0 0 0 0 0.05 0 0 0 0 0.15 0 0 0 0.22 0" result="c"/>
    <feMerge><feMergeNode in="c"/><feMergeNode in="SourceGraphic"/></feMerge>
  </filter>
</defs>
<rect width="800" height="520" rx="36" fill="url(#bg)"/>
<rect width="800" height="520" rx="36" fill="url(#glow)"/>
<g filter="url(#shadow)">
<circle cx="402" cy="126" r="38" fill="none" stroke="#c2b8ff" stroke-width="12"/>
<path d="M402 164 L402 210" stroke="#c2b8ff" stroke-width="10" stroke-linecap="round"/>
<path d="M402 210 C344 222 310 270 310 324 C310 380 352 414 402 414 C452 414 494 380 494 324 C494 270 460 222 402 210 Z" fill="#d89c7d" stroke="#b97d60" stroke-width="8"/>
<path d="M362 320 C362 286 389 260 422 260 C452 260 476 282 476 310 C476 350 438 376 402 398 C366 376 328 350 328 310 C328 282 352 260 382 260 C395 260 406 264 416 272" fill="#f5d7b8" opacity=".82"/>
<text x="70" y="452" font-size="36" font-weight="900" font-family="ui-sans-serif, system-ui" fill="#10203a">Kawaii Key</text>
<text x="72" y="486" font-size="18" font-weight="700" font-family="ui-sans-serif, system-ui" fill="#30415b">Heart charm keychain placeholder</text>
</g>
</svg>