<svg xmlns="http://www.w3.org/2000/svg" width="800" height="520" viewBox="0 0 800 520">
<defs>
  <linearGradient id="bg" x1="0" y1="0" x2="1" y2="1">
    <stop offset="0" stop-color="#8af0e8"/>
    <stop offset="1" stop-color="#8aa2ff"/>
  </linearGradient>
  <radialGradient id="glow" cx="20%" cy="18%" r="80%">
    <stop offset="0" stop-color="#ffffff" stop-opacity="0.55"/>
    <stop offset="1" stop-color="#ffffff" stop-opacity="0"/>
  </radialGradient>
  <filter id="shadow" x="-20%" y="-20%" width="140%" height="160%">
    <feGaussianBlur in="SourceAlpha" stdDeviation="10" result="b"/>
    <feOffset in="b" dy="10" result="o"/>
    <feColorMatrix in="o" type="matrix" values="0 0 0 0 0.02 0 0 0 0 0.05 0 0 0 0 0.15 0 0 0 0.22 0" result="c"/>
    <feMerge><feMergeNode in="c"/><feMergeNode in="SourceGraphic"/></feMerge>
  </filter>
</defs>
<rect width="800" height="520" rx="36" fill="url(#bg)"/>
<rect width="800" height="520" rx="36" fill="url(#glow)"/>
<g filter="url(#shadow)">
<rect x="184" y="104" width="432" height="284" rx="36" fill="rgba(255,255,255,.28)" stroke="rgba(255,255,255,.38)"/>
<g>
  <path d="M276 170 h90 v90 h-90 z" fill="#ffd84f" rx="14"/>
  <circle cx="474" cy="186" r="44" fill="#ff7db8"/>
  <path d="M382 250 C420 212 484 212 522 250" stroke="#ffffff" stroke-width="10" fill="none" stroke-linecap="round"/>
  <path d="M552 298 l34 -68 l42 28 l-40 70 z" fill="#7c7cff"/>
  <circle cx="322" cy="308" r="30" fill="#44d9c8"/>
  <path d="M432 310 l44 -28 l34 30 l-44 28 z" fill="#ffd6f2"/>
</g>
<text x="70" y="452" font-size="36" font-weight="900" font-family="ui-sans-serif, system-ui" fill="#10203a">Sticker Pack</text>
<text x="72" y="486" font-size="18" font-weight="700" font-family="ui-sans-serif, system-ui" fill="#30415b">Kawaii sticker set placeholder</text>
</g>
</svg>