<svg xmlns="http://www.w3.org/2000/svg" width="800" height="520" viewBox="0 0 800 520">
<defs>
  <linearGradient id="bg" x1="0" y1="0" x2="1" y2="1">
    <stop offset="0" stop-color="#ffd5e9"/>
    <stop offset="1" stop-color="#ff4fa3"/>
  </linearGradient>
  <radialGradient id="glow" cx="20%" cy="18%" r="80%">
    <stop offset="0" stop-color="#ffffff" stop-opacity="0.55"/>
    <stop offset="1" stop-color="#ffffff" stop-opacity="0"/>
  </radialGradient>
  <filter id="shadow" x="-20%" y="-20%" width="140%" height="160%">
    <feGaussianBlur in="SourceAlpha" stdDeviation="10" result="b"/>
    <feOffset in="b" dy="10" result="o"/>
    <feColorMatrix in="o" type="matrix" values="0 0 0 0 0.02 0 0 0 0 0.05 0 0 0 0 0.15 0 0 0 0.22 0" result="c"/>
    <feMerge><feMergeNode in="c"/><feMergeNode in="SourceGraphic"/></feMerge>
  </filter>
</defs>
<rect width="800" height="520" rx="36" fill="url(#bg)"/>
<rect width="800" height="520" rx="36" fill="url(#glow)"/>
<g filter="url(#shadow)">
<rect x="188" y="130" width="424" height="230" rx="32" fill="rgba(255,255,255,.30)" stroke="rgba(255,255,255,.46)"/>
<g fill="#ff8db8">
  <rect x="236" y="176" width="42" height="124" rx="21" transform="rotate(-18 236 176)"/>
  <rect x="318" y="160" width="42" height="138" rx="21" transform="rotate(-10 318 160)"/>
  <rect x="402" y="154" width="42" height="142" rx="21"/>
  <rect x="486" y="164" width="42" height="136" rx="21" transform="rotate(10 486 164)"/>
  <rect x="568" y="180" width="42" height="116" rx="21" transform="rotate(18 568 180)"/>
</g>
<g fill="#fff7fb" opacity=".92">
  <circle cx="266" cy="198" r="6"/><circle cx="354" cy="186" r="6"/><circle cx="423" cy="180" r="6"/><circle cx="507" cy="190" r="6"/><circle cx="586" cy="206" r="6"/>
</g>
<text x="70" y="452" font-size="36" font-weight="900" font-family="ui-sans-serif, system-ui" fill="#7a204c">Nail Spark</text>
<text x="72" y="486" font-size="18" font-weight="700" font-family="ui-sans-serif, system-ui" fill="#8d3f63">Nail sticker set placeholder</text>
</g>
</svg>