<svg xmlns="http://www.w3.org/2000/svg" width="800" height="520" viewBox="0 0 800 520">
<defs>
  <linearGradient id="bg" x1="0" y1="0" x2="1" y2="1">
    <stop offset="0" stop-color="#83b8ff"/>
    <stop offset="1" stop-color="#392d78"/>
  </linearGradient>
  <radialGradient id="glow" cx="20%" cy="18%" r="80%">
    <stop offset="0" stop-color="#ffffff" stop-opacity="0.55"/>
    <stop offset="1" stop-color="#ffffff" stop-opacity="0"/>
  </radialGradient>
  <filter id="shadow" x="-20%" y="-20%" width="140%" height="160%">
    <feGaussianBlur in="SourceAlpha" stdDeviation="10" result="b"/>
    <feOffset in="b" dy="10" result="o"/>
    <feColorMatrix in="o" type="matrix" values="0 0 0 0 0.02 0 0 0 0 0.05 0 0 0 0 0.15 0 0 0 0.22 0" result="c"/>
    <feMerge><feMergeNode in="c"/><feMergeNode in="SourceGraphic"/></feMerge>
  </filter>
</defs>
<rect width="800" height="520" rx="36" fill="url(#bg)"/>
<rect width="800" height="520" rx="36" fill="url(#glow)"/>
<g filter="url(#shadow)">
<rect x="200" y="96" width="400" height="274" rx="28" fill="rgba(255,255,255,.22)" stroke="rgba(255,255,255,.35)"/>
<path d="M260 140 L540 140 L512 340 L288 340 Z" fill="#fff8ef"/>
<path d="M288 150 L512 150 L492 328 L308 328 Z" fill="#f9e5b5"/>
<g fill="#c98e41">
  <ellipse cx="340" cy="214" rx="54" ry="34"/><ellipse cx="448" cy="210" rx="50" ry="32"/>
  <ellipse cx="390" cy="275" rx="76" ry="38"/>
</g>
<g fill="#8a5b2f" opacity=".35"><circle cx="346" cy="214" r="4"/><circle cx="430" cy="204" r="5"/><circle cx="395" cy="286" r="4"/></g>
<text x="70" y="452" font-size="36" font-weight="900" font-family="ui-sans-serif, system-ui" fill="#ffffff">Crunchy</text>
<text x="70" y="486" font-size="18" font-weight="700" font-family="ui-sans-serif, system-ui" fill="rgba(255,255,255,.78)">Mini rice cracker bag placeholder</text>
</g>
</svg>